<svg width="500" height="500" viewBox="0 0 500 500" fill="none" xmlns="http://www.w3.org/2000/svg">
<path d="M190.025 329V186.06H210.572V329H190.025ZM130.764 333.765C116.669 333.765 103.864 330.39 92.3489 323.64C80.8343 316.89 71.702 307.758 64.9521 296.243C58.2021 284.53 54.8271 271.625 54.8271 257.53C54.8271 243.236 58.2021 230.332 64.9521 218.817C71.702 207.302 80.8343 198.17 92.3489 191.42C103.864 184.67 116.669 181.295 130.764 181.295C144.264 181.295 156.473 184.67 167.393 191.42C178.312 198.17 187.047 207.302 193.598 218.817C200.15 230.332 203.425 243.236 203.425 257.53C203.425 271.625 200.15 284.53 193.598 296.243C187.047 307.758 178.312 316.89 167.393 323.64C156.473 330.39 144.264 333.765 130.764 333.765ZM132.849 314.408C143.768 314.408 153.496 311.927 162.032 306.963C170.569 302 177.319 295.25 182.282 286.714C187.444 277.978 190.025 268.25 190.025 257.53C190.025 246.809 187.444 237.181 182.282 228.644C177.319 219.909 170.569 213.06 162.032 208.096C153.496 202.935 143.768 200.354 132.849 200.354C122.128 200.354 112.5 202.935 103.963 208.096C95.4261 213.06 88.5769 219.909 83.4152 228.644C78.2534 237.181 75.6726 246.809 75.6726 257.53C75.6726 268.25 78.2534 277.978 83.4152 286.714C88.5769 295.25 95.4261 302 103.963 306.963C112.5 311.927 122.128 314.408 132.849 314.408ZM191.521 329V186.06H213.259V214.052L209.984 210.181C214.748 201.446 221.3 194.497 229.638 189.336C237.976 183.975 247.108 181.295 257.035 181.295C269.145 181.295 279.965 184.869 289.494 192.016C299.222 198.964 306.071 207.898 310.042 218.817L305.277 219.115C309.049 207.799 315.402 198.666 324.336 191.718C333.468 184.769 343.99 181.295 355.902 181.295C366.622 181.295 376.35 183.876 385.085 189.038C393.821 194.199 400.67 201.148 405.633 209.883C410.795 218.618 413.376 228.446 413.376 239.365V329H391.637V239.365C391.637 232.218 389.85 225.666 386.277 219.71C382.902 213.755 378.236 209.089 372.28 205.714C366.325 202.141 359.773 200.354 352.626 200.354C345.281 200.354 338.63 202.141 332.674 205.714C326.718 209.089 321.954 213.755 318.38 219.71C315.005 225.666 313.318 232.218 313.318 239.365V329H291.579V239.365C291.579 232.218 289.792 225.666 286.218 219.71C282.843 213.755 278.178 209.089 272.222 205.714C266.266 202.141 259.715 200.354 252.568 200.354C245.222 200.354 238.572 202.141 232.616 205.714C226.66 209.288 221.895 214.251 218.322 220.604C214.947 226.758 213.259 234.004 213.259 242.343V329H191.521Z" fill="black"/>
</svg>
